<svg id="Group_93" data-name="Group 93" xmlns="http://www.w3.org/2000/svg" viewBox="0 0 64.003 63.751">
  <defs>
    <style>
      .cls-1, .cls-2 {
        fill: #4ba2cc;
      }

      .cls-2 {
        font-size: 10px;
        font-family: UniNeueBlack, Uni Neue;
      }
    </style>
  </defs>
  <path id="Path_53" data-name="Path 53" class="cls-1" d="M29.857,30.554a.463.463,0,0,1-.378-.126.865.865,0,0,1-.378-1.134l.882-1.638H28.975a.9.9,0,0,1-.756-.378,1.076,1.076,0,0,1,0-.882l1.512-2.9a.845.845,0,1,1,1.512.756l-.882,1.638h1.008a.9.9,0,0,1,.756.378,1.076,1.076,0,0,1,0,.882l-1.512,2.9A.784.784,0,0,1,29.857,30.554Z" transform="translate(7.31 5.983)"/>
  <g id="Group_90" data-name="Group 90" transform="translate(10.583 20.032)">
    <path id="Path_54" data-name="Path 54" class="cls-1" d="M40.527,40.846h-25.2c-6.8,0-6.929-5.04-6.929-5.04V28.877a.757.757,0,0,1,.126-.5.757.757,0,0,1-.126-.5V20.94s.126-5.04,6.929-5.04h25.2c5.922,0,6.8,3.654,6.929,4.788l2.52.126a1.355,1.355,0,0,1,1.26,1.26V34.924a1.292,1.292,0,0,1-1.26,1.26h-2.52C47.2,37.318,46.323,40.846,40.527,40.846ZM10.794,28.373a.757.757,0,0,1,.126.5v6.929c0,.252.252,2.52,4.41,2.52h25.2c4.158,0,4.41-2.268,4.41-2.52v-.882a1.292,1.292,0,0,1,1.26-1.26h2.52V23.207l-2.52-.126a1.355,1.355,0,0,1-1.26-1.26V20.814c0-.252-.252-2.52-4.41-2.52h-25.2c-4.158,0-4.41,2.268-4.41,2.52v6.929A5.458,5.458,0,0,1,10.794,28.373Z" transform="translate(-8.4 -15.9)"/>
  </g>
  <g id="Group_91" data-name="Group 91" transform="translate(21.131 24.983)">
    <text id="_12" data-name="12" class="cls-2" transform="translate(0 11)"><tspan x="0" y="0">12</tspan></text>
  </g>
  <g id="Group_92" data-name="Group 92" transform="translate(0)">
    <path id="Path_55" data-name="Path 55" class="cls-1" d="M43.637,59.774H30.66a1.26,1.26,0,1,1,0-2.52H43.637c10.079,0,10.205-6.173,10.205-6.425V16.56a1.26,1.26,0,1,1,2.52,0v34.4C56.236,50.955,56.11,59.774,43.637,59.774Z" transform="translate(7.641 3.976)"/>
    <path id="Path_56" data-name="Path 56" class="cls-1" d="M25.7,55.824H12.725C.126,55.824,0,47,0,46.879V31.76A1.19,1.19,0,0,1,1.26,30.5a1.19,1.19,0,0,1,1.26,1.26V47c0,.252.252,6.425,10.205,6.425H25.7a1.19,1.19,0,0,1,1.26,1.26A1.158,1.158,0,0,1,25.7,55.824Z" transform="translate(0 7.927)"/>
    <path id="Path_57" data-name="Path 57" class="cls-1" d="M1.26,44.474A1.19,1.19,0,0,1,0,43.214V8.819S.126,0,12.725,0H51.278C63.877,0,64,8.819,64,8.819V24.064a1.26,1.26,0,1,1-2.52,0V8.819c0-.252-.252-6.3-10.205-6.3H12.725C2.772,2.52,2.52,8.693,2.52,8.945v34.4A1.163,1.163,0,0,1,1.26,44.474Z" transform="translate(0)"/>
  </g>
  <circle id="Ellipse_26" data-name="Ellipse 26" class="cls-1" cx="1.26" cy="1.26" r="1.26" transform="translate(30.741 61.231)"/>
</svg>
