<svg id="Group_121" data-name="Group 121" xmlns="http://www.w3.org/2000/svg" viewBox="0 0 66.07 66.07">
  <defs>
    <style>
      .cls-1 {
        fill: #4ba2cc;
      }
    </style>
  </defs>
  <g id="Group_118" data-name="Group 118" transform="translate(22.617 13.506)">
    <path id="Path_102" data-name="Path 102" class="cls-1" d="M24.811,44.684a1.168,1.168,0,0,1-1.173-1.173V32.564L19.208,35.3a1.14,1.14,0,0,1-1.173-1.955l5.734-3.519V11.584a1.5,1.5,0,0,1,.782-1.173,1.067,1.067,0,0,1,1.3.521l8.861,13.422a1.144,1.144,0,0,1,.13.912,2.726,2.726,0,0,1-.521.782l-8.34,5.213v12.38A1.149,1.149,0,0,1,24.811,44.684Zm1.173-29.06v12.9l5.994-3.649Z" transform="translate(-17.325 -10.364)"/>
    <path id="Path_103" data-name="Path 103" class="cls-1" d="M24.841,48.273H24.45a1.14,1.14,0,0,1-.782-1.173V28.856l-5.734-3.519a1.14,1.14,0,1,1,1.173-1.955l4.431,2.737V15.173a1.173,1.173,0,1,1,2.346,0v12.38l8.34,5.082a.88.88,0,0,1,.521.782,1.932,1.932,0,0,1-.13.912L25.754,47.752A1.1,1.1,0,0,1,24.841,48.273Zm1.173-17.983v12.9l5.994-9.122Z" transform="translate(-17.356 -9.262)"/>
  </g>
  <g id="Group_120" data-name="Group 120">
    <g id="Group_119" data-name="Group 119">
      <path id="Path_104" data-name="Path 104" class="cls-1" d="M44.7,57.157H9.252c-.13,0-9.252-.13-9.252-13.031V30.7a1.231,1.231,0,0,1,1.3-1.3,1.231,1.231,0,0,1,1.3,1.3V44.126c0,10.425,6.385,10.556,6.646,10.556H44.828a1.231,1.231,0,0,1,1.3,1.3C46.131,56.766,45.48,57.157,44.7,57.157Z" transform="translate(0 8.913)"/>
      <path id="Path_105" data-name="Path 105" class="cls-1" d="M1.3,27.887a1.231,1.231,0,0,1-1.3-1.3V13.162C0,.13,9.122,0,9.252,0H25.02a1.231,1.231,0,0,1,1.3,1.3,1.231,1.231,0,0,1-1.3,1.3H9.252c-.261,0-6.646.261-6.646,10.556V26.584A1.306,1.306,0,0,1,1.3,27.887Z"/>
      <path id="Path_106" data-name="Path 106" class="cls-1" d="M52.179,66.07H36.411a1.3,1.3,0,1,1,0-2.606H52.179c.261,0,6.646-.261,6.646-10.556V13.162c0-10.295-6.385-10.556-6.646-10.556H16.6a1.231,1.231,0,0,1-1.3-1.3A1.231,1.231,0,0,1,16.6,0H52.179c.13,0,9.252.13,9.252,13.162V53.038C61.3,65.939,52.309,66.07,52.179,66.07Z" transform="translate(4.638)"/>
    </g>
    <circle id="Ellipse_32" data-name="Ellipse 32" class="cls-1" cx="1.303" cy="1.303" r="1.303" transform="translate(0 31.797)"/>
  </g>
</svg>
