<svg id="Group_106" data-name="Group 106" xmlns="http://www.w3.org/2000/svg" viewBox="0 0 63.448 63.448">
  <defs>
    <style>
      .cls-1 {
        fill: #4ba2cc;
      }
    </style>
  </defs>
  <g id="Group_103" data-name="Group 103" transform="translate(12.264 11.419)">
    <path id="Path_68" data-name="Path 68" class="cls-1" d="M28.5,15.6a1.138,1.138,0,0,1-1-.5l-1.877-2.628L23.746,15.1a1.346,1.346,0,0,1-1.752.25,1.324,1.324,0,0,1-.25-1.752l2.878-4a1.3,1.3,0,0,1,2,0l2.878,4a1.346,1.346,0,0,1-.25,1.752A1.779,1.779,0,0,1,28.5,15.6Z" transform="translate(-6.852 -9.125)"/>
    <path id="Path_69" data-name="Path 69" class="cls-1" d="M25.623,43a1.545,1.545,0,0,1-1-.5l-2.878-4a1.251,1.251,0,1,1,2-1.5l1.877,2.628L27.5,36.994a1.251,1.251,0,0,1,2,1.5l-2.878,4A1.545,1.545,0,0,1,25.623,43Z" transform="translate(-6.852 -2.235)"/>
    <g id="Group_102" data-name="Group 102" transform="translate(0 10.606)">
      <path id="Path_70" data-name="Path 70" class="cls-1" d="M35.845,30.153a1.138,1.138,0,0,1-1-.5,1.346,1.346,0,0,1,.25-1.752l2.628-1.877-2.628-1.877a1.324,1.324,0,0,1-.25-1.752,1.346,1.346,0,0,1,1.752-.25l4,2.878a1.138,1.138,0,0,1,.5,1,1.545,1.545,0,0,1-.5,1l-4,2.878A.919.919,0,0,1,35.845,30.153Z" transform="translate(-3.558 -16.512)"/>
      <path id="Path_71" data-name="Path 71" class="cls-1" d="M15.056,30.153a1.779,1.779,0,0,1-.751-.25l-4-2.878a1.138,1.138,0,0,1-.5-1,1.545,1.545,0,0,1,.5-1l4-2.878a1.251,1.251,0,0,1,1.5,2l-2.628,1.877L15.807,27.9a1.324,1.324,0,0,1,.25,1.752A1.138,1.138,0,0,1,15.056,30.153Z" transform="translate(-9.8 -16.512)"/>
      <g id="Group_101" data-name="Group 101" transform="translate(12.514)">
        <path id="Path_72" data-name="Path 72" class="cls-1" d="M21.051,36.747A1.182,1.182,0,0,1,19.8,35.5V18.851a1.251,1.251,0,0,1,2.5,0V35.5A1.254,1.254,0,0,1,21.051,36.747Z" transform="translate(-19.8 -17.6)"/>
        <path id="Path_73" data-name="Path 73" class="cls-1" d="M29.051,36.747A1.182,1.182,0,0,1,27.8,35.5V18.851a1.251,1.251,0,0,1,2.5,0V35.5A1.254,1.254,0,0,1,29.051,36.747Z" transform="translate(-17.788 -17.6)"/>
        <path id="Path_74" data-name="Path 74" class="cls-1" d="M30.287,26.7H21.151a1.251,1.251,0,0,1,0-2.5h9.136a1.182,1.182,0,0,1,1.251,1.251A1.254,1.254,0,0,1,30.287,26.7Z" transform="translate(-19.775 -15.94)"/>
      </g>
    </g>
  </g>
  <g id="Group_105" data-name="Group 105">
    <g id="Group_104" data-name="Group 104">
      <path id="Path_75" data-name="Path 75" class="cls-1" d="M42.925,56.056H8.885C8.76,56.056,0,55.931,0,43.541V30.651A1.182,1.182,0,0,1,1.251,29.4,1.182,1.182,0,0,1,2.5,30.651v12.89c0,10.012,6.132,10.137,6.382,10.137H43.05A1.182,1.182,0,0,1,44.3,54.929C44.3,55.68,43.675,56.056,42.925,56.056Z" transform="translate(0 7.392)"/>
      <path id="Path_76" data-name="Path 76" class="cls-1" d="M1.251,26.781A1.182,1.182,0,0,1,0,25.529V12.64C0,.125,8.76,0,8.885,0H24.028a1.182,1.182,0,0,1,1.251,1.251A1.182,1.182,0,0,1,24.028,2.5H8.885c-.25,0-6.382.25-6.382,10.137v12.89A1.254,1.254,0,0,1,1.251,26.781Z"/>
      <path id="Path_77" data-name="Path 77" class="cls-1" d="M50.716,63.448H35.573a1.251,1.251,0,0,1,0-2.5H50.716c.25,0,6.382-.25,6.382-10.137V12.64C57.1,2.753,50.966,2.5,50.716,2.5H16.551A1.182,1.182,0,0,1,15.3,1.251,1.182,1.182,0,0,1,16.551,0H50.716C50.841,0,59.6.125,59.6,12.64V50.934C59.476,63.323,50.841,63.448,50.716,63.448Z" transform="translate(3.847)"/>
    </g>
    <circle id="Ellipse_29" data-name="Ellipse 29" class="cls-1" cx="1.251" cy="1.251" r="1.251" transform="translate(0 30.535)"/>
  </g>
</svg>
