<svg id="Group_664" data-name="Group 664" xmlns="http://www.w3.org/2000/svg" width="21.956" height="21.956" viewBox="0 0 21.956 21.956">
  <g id="Group_663" data-name="Group 663">
    <path id="Path_125" data-name="Path 125" d="M150.528,10.5h-6.543a1.87,1.87,0,0,0-1.885,1.885v6.543a1.87,1.87,0,0,0,1.885,1.885h6.543a1.87,1.87,0,0,0,1.885-1.885V12.441a1.954,1.954,0,0,0-1.885-1.941Zm-3.271,8.594a3.382,3.382,0,1,1,3.382-3.382,3.4,3.4,0,0,1-3.382,3.382Zm3.493-6.1a.832.832,0,1,1,.832-.832.894.894,0,0,1-.832.832Zm0,0" transform="translate(-136.278 -4.678)" fill="#FFF"/>
    <path id="Path_126" data-name="Path 126" d="M149.841,16.3a1.941,1.941,0,1,0,1.941,1.941,1.964,1.964,0,0,0-1.941-1.941Zm0,0" transform="translate(-138.862 -7.262)" fill="#FFF"/>
    <path id="Path_127" data-name="Path 127" d="M142.578,0a10.978,10.978,0,1,0,10.978,10.978A11,11,0,0,0,142.578,0Zm6.6,14.3a3.336,3.336,0,0,1-3.327,3.327h-6.543A3.336,3.336,0,0,1,135.98,14.3V7.762a3.336,3.336,0,0,1,3.327-3.327h6.543a3.336,3.336,0,0,1,3.327,3.327Zm0,0" transform="translate(-131.6)" fill="#FFF"/>
  </g>
</svg>
