<svg id="Group_99" data-name="Group 99" xmlns="http://www.w3.org/2000/svg" viewBox="0 0 65.385 65.128">
  <defs>
    <style>
      .cls-1 {
        fill: #4ba2cc;
      }
    </style>
  </defs>
  <g id="Group_95" data-name="Group 95" transform="translate(16.99 10.039)">
    <g id="Group_94" data-name="Group 94" transform="translate(10.981 7.208)">
      <path id="Path_58" data-name="Path 58" class="cls-1" d="M26.582,28.584a5.327,5.327,0,0,1-4.634-2.7,1.3,1.3,0,1,1,2.188-1.416c1.158,1.8,2.574,1.673,3.089,1.416.644-.257,1.287-.772,1.287-1.287,0-.644-.9-1.416-2.317-1.931-2.96-1.158-3.6-2.832-3.6-3.861a3.635,3.635,0,0,1,1.673-3.346,5.551,5.551,0,0,1,5.792.257A1.3,1.3,0,0,1,28.641,17.9a3.036,3.036,0,0,0-3.089-.257.972.972,0,0,0-.515.9c0,.515.644,1.158,2.059,1.673,3.6,1.416,3.99,3.6,3.99,4.5a4.066,4.066,0,0,1-3.218,3.6A3.808,3.808,0,0,1,26.582,28.584Z" transform="translate(-21.731 -13.01)"/>
      <path id="Path_59" data-name="Path 59" class="cls-1" d="M25.687,17.9A1.216,1.216,0,0,1,24.4,16.618V14.687a1.287,1.287,0,1,1,2.574,0v1.931A1.384,1.384,0,0,1,25.687,17.9Z" transform="translate(-20.965 -13.4)"/>
      <path id="Path_60" data-name="Path 60" class="cls-1" d="M25.687,27.5A1.216,1.216,0,0,1,24.4,26.217v-1.03a1.287,1.287,0,1,1,2.574,0v1.03A1.29,1.29,0,0,1,25.687,27.5Z" transform="translate(-20.965 -10.385)"/>
    </g>
    <path id="Path_61" data-name="Path 61" class="cls-1" d="M28.9,39.206A15.7,15.7,0,1,1,44.477,23.5,15.766,15.766,0,0,1,28.9,39.206Zm0-28.7a13.129,13.129,0,1,0,13,13A12.964,12.964,0,0,0,28.9,10.5Z" transform="translate(-13.2 -7.8)"/>
  </g>
  <g id="Group_96" data-name="Group 96" transform="translate(19.693 46.061)">
    <path id="Path_62" data-name="Path 62" class="cls-1" d="M31.162,45.843a1.39,1.39,0,0,1-.9-.386,1.172,1.172,0,0,1,.129-1.545l3.861-3.089L30.39,37.735a1.1,1.1,0,1,1,1.416-1.673L36.7,39.923a1.244,1.244,0,0,1,0,1.8l-4.891,3.861C31.549,45.715,31.42,45.843,31.162,45.843Z" transform="translate(-11.083 -35.786)"/>
    <path id="Path_63" data-name="Path 63" class="cls-1" d="M21.221,45.834a.983.983,0,0,1-.644-.257l-4.891-3.861a1.244,1.244,0,0,1,0-1.8l4.891-3.861a1.1,1.1,0,1,1,1.416,1.673l-3.861,3.089L21.993,43.9a1.051,1.051,0,0,1,.129,1.545A1.39,1.39,0,0,1,21.221,45.834Z" transform="translate(-15.3 -35.777)"/>
    <path id="Path_64" data-name="Path 64" class="cls-1" d="M40.069,41.059H17.03A1.015,1.015,0,0,1,16,40.03,1.107,1.107,0,0,1,17.03,39H40.069a1.015,1.015,0,0,1,1.03,1.03A1.107,1.107,0,0,1,40.069,41.059Z" transform="translate(-15.099 -34.863)"/>
  </g>
  <g id="Group_98" data-name="Group 98" transform="translate(0)">
    <g id="Group_97" data-name="Group 97">
      <path id="Path_65" data-name="Path 65" class="cls-1" d="M1.287,45.435A1.216,1.216,0,0,1,0,44.148V9.139C0,9.01.129,0,13,0H26.257a1.216,1.216,0,0,1,1.287,1.287,1.216,1.216,0,0,1-1.287,1.287H13C2.7,2.574,2.574,8.881,2.574,9.139V44.277A1.188,1.188,0,0,1,1.287,45.435Z" transform="translate(0)"/>
      <path id="Path_66" data-name="Path 66" class="cls-1" d="M55.528,26a1.216,1.216,0,0,1-1.287-1.287V9.139c0-.257-.257-6.564-10.426-6.564H30.687A1.216,1.216,0,0,1,29.4,1.287,1.216,1.216,0,0,1,30.687,0H43.944c12.871,0,13,9.01,13,9.139V24.713A1.513,1.513,0,0,1,55.528,26Z" transform="translate(8.441)"/>
      <path id="Path_67" data-name="Path 67" class="cls-1" d="M52.386,60.735H13c-12.871,0-13-9.01-13-9.139V36.151a1.216,1.216,0,0,1,1.287-1.287,1.216,1.216,0,0,1,1.287,1.287V51.725c0,.257.257,6.564,10.426,6.564H52.386c10.168,0,10.426-6.307,10.426-6.564V16.587a1.287,1.287,0,1,1,2.574,0V51.725C65.257,51.725,65.128,60.735,52.386,60.735Z" transform="translate(0 4.393)"/>
    </g>
    <circle id="Ellipse_27" data-name="Ellipse 27" class="cls-1" cx="1.287" cy="1.287" r="1.287" transform="translate(31.406)"/>
  </g>
</svg>
