<svg xmlns="http://www.w3.org/2000/svg" width="34.251" height="43" viewBox="0 0 34.251 43">
  <g id="Group_812" data-name="Group 812" transform="translate(-348 -23)">
    <circle id="XMLID_78_" cx="1.858" cy="1.858" r="1.858" transform="translate(364.72 23.101)" fill="#4ba2cc"/>
    <path id="XMLID_76_" d="M45.718,21.258a1.874,1.874,0,0,1-1.858,1.858h-2.7a1.858,1.858,0,0,1,0-3.716h2.7A1.874,1.874,0,0,1,45.718,21.258Z" transform="translate(321.975 10.221)" fill="#4ba2cc"/>
    <path id="XMLID_74_" d="M41.842,40.656a1.874,1.874,0,0,1-1.858,1.858H35.458a1.858,1.858,0,0,1,0-3.716h4.526A1.831,1.831,0,0,1,41.842,40.656Z" transform="translate(325.75 -2.624)" fill="#4ba2cc"/>
    <path id="XMLID_72_" d="M45.085,59.956a1.874,1.874,0,0,1-1.858,1.858H37.958a1.858,1.858,0,0,1,0-3.716h5.269A1.811,1.811,0,0,1,45.085,59.956Z" transform="translate(324.094 -15.405)" fill="#4ba2cc"/>
    <circle id="XMLID_70_" cx="1.858" cy="1.858" r="1.858" transform="translate(360.937 62.284)" fill="#4ba2cc"/>
    <path id="XMLID_68_" d="M40.5,98.558A1.874,1.874,0,0,1,42.358,96.7h2.7a1.858,1.858,0,1,1,0,3.716h-2.7A1.831,1.831,0,0,1,40.5,98.558Z" transform="translate(321.18 -40.969)" fill="#4ba2cc"/>
    <path id="XMLID_66_" d="M40.8,79.258A1.874,1.874,0,0,1,42.658,77.4h4.526a1.858,1.858,0,1,1,0,3.716H42.658A1.852,1.852,0,0,1,40.8,79.258Z" transform="translate(320.981 -28.188)" fill="#4ba2cc"/>
    <path id="XMLID_64_" d="M72.395,7.805V34.828a7.99,7.99,0,0,1-7.8,7.938H59.458A1.874,1.874,0,0,1,57.6,40.908a1.9,1.9,0,0,1,1.858-1.892h5.134a4.188,4.188,0,0,0,4.155-4.222V7.772a4.21,4.21,0,0,0-4.155-4.222H63.173a1.882,1.882,0,0,1-1.858-1.892A1.852,1.852,0,0,1,63.173-.2h1.419A8.1,8.1,0,0,1,72.395,7.805Z" transform="translate(309.856 23.2)" fill="#4ba2cc"/>
    <path id="XMLID_62_" d="M0,34.995V7.972A8.049,8.049,0,0,1,7.837,0h4.189a1.874,1.874,0,0,1,1.858,1.858,1.9,1.9,0,0,1-1.858,1.892H7.837A4.217,4.217,0,0,0,3.648,7.972V34.995a4.21,4.21,0,0,0,4.189,4.189h.439a1.882,1.882,0,0,1,1.858,1.892,1.852,1.852,0,0,1-1.858,1.858H7.837A8.042,8.042,0,0,1,0,34.995Z" transform="translate(348 23.068)" fill="#4ba2cc"/>
  </g>
</svg>
