<svg id="XMLID_1_" xmlns="http://www.w3.org/2000/svg" width="114.645" height="17.126" viewBox="0 0 114.645 17.126">
  <g id="Group_1" data-name="Group 1">
    <path id="XMLID_34_" d="M137.454,38.7c3.682,0,6.013,2.3,6.013,5.945a5.6,5.6,0,0,1-6.013,5.979h-2.871v4.459c0,.27-.135.439-.405.439h-2.973c-.27,0-.405-.135-.405-.439V39.139c0-.27.135-.439.405-.439Zm-.507,8.411c1.79,0,2.668-.811,2.668-2.466s-.878-2.466-2.668-2.466h-2.365v4.932Z" transform="translate(-130.8 -38.7)" fill="#4ba2cc"/>
    <path id="XMLID_31_" d="M178.007,64.136c-3.445,0-5.607-1.892-5.607-4.965v-2.8c0-3.141,2.128-5.067,5.607-5.067,3.445,0,5.573,1.892,5.573,5.067v2.8C183.547,62.278,181.419,64.136,178.007,64.136Zm0-3.141a1.686,1.686,0,0,0,1.925-1.824v-2.8a1.927,1.927,0,0,0-3.851,0v2.8A1.686,1.686,0,0,0,178.007,60.994Z" transform="translate(-158.348 -47.044)" fill="#4ba2cc"/>
    <path id="XMLID_29_" d="M215.092,64.07a8.8,8.8,0,0,1-4.9-1.52.353.353,0,0,1-.1-.574l1.115-1.892c.169-.27.338-.3.574-.135A5.917,5.917,0,0,0,215.126,61c.98,0,1.655-.338,1.655-.946s-.743-.811-1.689-.98c-2.567-.439-4.661-1.52-4.661-3.986,0-2.567,2.027-3.885,5.1-3.885a8.668,8.668,0,0,1,4.155,1.081c.236.1.27.338.135.574l-1.081,1.824a.4.4,0,0,1-.574.169,5.857,5.857,0,0,0-2.736-.676c-1.013,0-1.52.27-1.52.878,0,.642.54.844,2.061,1.081,2.432.439,4.391,1.419,4.391,3.817C220.4,62.718,218.47,64.07,215.092,64.07Z" transform="translate(-183.239 -46.978)" fill="#4ba2cc"/>
    <path id="XMLID_27_" d="M251.4,55.828c.2,0,.507-.034.743-.034.3-.034.439.068.439.338v2.3a.421.421,0,0,1-.338.473,9.329,9.329,0,0,1-1.486.1c-2.736,0-4.56-1.486-4.56-4.493V44.005c0-.27.135-.405.439-.405h2.736c.27,0,.405.1.439.372v2.8h2.128c.27,0,.439.135.439.405v2.263c0,.27-.169.405-.439.405h-2.094v4.256C249.848,55.254,250.389,55.828,251.4,55.828Z" transform="translate(-207.22 -41.945)" fill="#4ba2cc"/>
    <path id="XMLID_25_" d="M280.635,52.3c.27,0,.439.135.439.405V63.379a.524.524,0,0,1-.3.507,13.515,13.515,0,0,1-4.83.946c-3.547,0-5.54-1.892-5.54-5.438V52.705c0-.27.135-.405.439-.405h2.77c.27,0,.439.135.439.405v6.688c0,1.723.709,2.263,1.925,2.263a4.85,4.85,0,0,0,1.554-.236V52.705a.358.358,0,0,1,.405-.405Z" transform="translate(-223.245 -47.706)" fill="#4ba2cc"/>
    <path id="XMLID_23_" d="M309.839,63.766a.393.393,0,0,1-.439-.439V52.686a.6.6,0,0,1,.3-.507,9.785,9.785,0,0,1,4.324-.98,14.329,14.329,0,0,1,2.263.236.39.39,0,0,1,.372.439v2.162c0,.27-.169.439-.439.372a10.5,10.5,0,0,0-1.452-.1,4.491,4.491,0,0,0-1.79.3v8.681c0,.27-.135.439-.405.439h-2.736Z" transform="translate(-249.072 -46.978)" fill="#4ba2cc"/>
    <path id="XMLID_20_" d="M344.608,58.562c0,.27-.135.405-.439.405h-6.654v.372c0,1.182.777,1.824,2.027,1.824a5.589,5.589,0,0,0,2.973-.844.338.338,0,0,1,.54.1l1.216,1.621a.389.389,0,0,1-.068.574,7.61,7.61,0,0,1-4.8,1.554c-3.04,0-5.506-1.621-5.506-4.9V56.3c0-3.513,2.466-5,5.438-5,2.9,0,5.236,1.452,5.236,5v2.263Zm-5.269-4.29a1.664,1.664,0,0,0-1.824,1.858v.507h3.614V56.13A1.641,1.641,0,0,0,339.338,54.273Z" transform="translate(-265.296 -47.044)" fill="#4ba2cc"/>
    <path id="XMLID_17_" d="M379.754,38.7c3.682,0,6.013,2.3,6.013,5.945a5.6,5.6,0,0,1-6.013,5.979h-2.871v4.459c0,.27-.135.439-.405.439h-2.972c-.27,0-.405-.135-.405-.439V39.139c0-.27.135-.439.405-.439Zm-.507,8.411c1.79,0,2.669-.811,2.669-2.466s-.878-2.466-2.669-2.466h-2.365v4.932Z" transform="translate(-291.255 -38.7)" fill="#4ba2cc"/>
    <path id="XMLID_14_" d="M418.84,51.3c3.243,0,5.134,1.689,5.134,5.269v6.452a.442.442,0,0,1-.338.473,17.207,17.207,0,0,1-4.83.676c-3.378,0-5.506-1.284-5.506-4.053,0-2.432,1.925-3.648,5.134-3.648a16.823,16.823,0,0,1,1.993.135v-.236c0-1.25-.439-1.925-1.959-1.925a6.869,6.869,0,0,0-2.939.642.4.4,0,0,1-.574-.135l-.98-1.824c-.1-.236-.1-.405.034-.507A8.823,8.823,0,0,1,418.84,51.3Zm-.034,9.931a7.257,7.257,0,0,0,1.588-.2v-2.06a8.519,8.519,0,0,0-1.621-.135c-1.284,0-1.858.439-1.858,1.182C416.914,60.826,417.657,61.231,418.806,61.231Z" transform="translate(-317.876 -47.044)" fill="#4ba2cc"/>
    <path id="XMLID_12_" d="M456.257,55.792c-2.77,0-4.357-1.689-4.357-4.56V39.139a.393.393,0,0,1,.439-.439h2.77c.27,0,.405.135.405.439V50.826c0,1.182.473,1.723,1.385,1.723a5.473,5.473,0,0,0,.743-.034c.27-.034.439.1.439.405v2.364a.423.423,0,0,1-.27.439C457.44,55.724,456.9,55.792,456.257,55.792Z" transform="translate(-343.437 -38.7)" fill="#4ba2cc"/>
  </g>
</svg>
