<svg id="Group_662" data-name="Group 662" xmlns="http://www.w3.org/2000/svg" width="22.067" height="22.067" viewBox="0 0 22.067 22.067">
  <path id="Path_124" data-name="Path 124" d="M76.778,0A11.034,11.034,0,1,0,87.867,11.034,11.015,11.015,0,0,0,76.778,0Zm4.935,8.483v.333a7.172,7.172,0,0,1-11.089,6.044c.222,0,.388.055.61.055a4.989,4.989,0,0,0,3.16-1.109,2.566,2.566,0,0,1-2.384-1.774,1.535,1.535,0,0,0,.5.055,2.783,2.783,0,0,0,.665-.111,2.556,2.556,0,0,1-2.051-2.5V9.426a3.583,3.583,0,0,0,1.164.333,2.523,2.523,0,0,1-1.109-2.107,2.576,2.576,0,0,1,.333-1.275,7.179,7.179,0,0,0,5.212,2.661,1.886,1.886,0,0,1-.055-.554,2.544,2.544,0,0,1,2.55-2.55,2.644,2.644,0,0,1,1.83.776,5.66,5.66,0,0,0,1.608-.61,2.333,2.333,0,0,1-1.109,1.386A6.137,6.137,0,0,0,82.988,7.1a3.866,3.866,0,0,1-1.275,1.386Zm0,0" transform="translate(-65.8)" fill="#FFF"/>
</svg>
