<svg id="Group_117" data-name="Group 117" xmlns="http://www.w3.org/2000/svg" viewBox="0 0 63.356 63.356">
  <defs>
    <style>
      .cls-1 {
        fill: #4ba2cc;
      }
    </style>
  </defs>
  <g id="Group_114" data-name="Group 114" transform="translate(20.588 12.121)">
    <g id="Group_111" data-name="Group 111" transform="translate(18.776 10.247)">
      <path id="Path_84" data-name="Path 84" class="cls-1" d="M33.55,30.048a1.134,1.134,0,0,1-.875-.375,1.208,1.208,0,0,1,0-1.749,2.661,2.661,0,0,0,0-3.5,1.237,1.237,0,0,1,1.749-1.749,5.057,5.057,0,0,1,0,7A1.134,1.134,0,0,1,33.55,30.048Z" transform="translate(-31.3 -16.802)"/>
      <path id="Path_85" data-name="Path 85" class="cls-1" d="M33.749,25.9a1.134,1.134,0,0,1-.875-.375A5.214,5.214,0,0,1,31.5,21.9a5.444,5.444,0,0,1,1.375-3.624,1.237,1.237,0,0,1,1.749,1.749A2.709,2.709,0,0,0,34,21.774a2.472,2.472,0,0,0,.625,1.749,1.208,1.208,0,0,1,0,1.749C34.374,25.773,34.124,25.9,33.749,25.9Z" transform="translate(-31.5 -17.9)"/>
      <path id="Path_86" data-name="Path 86" class="cls-1" d="M33.749,34.248a1.134,1.134,0,0,1-.875-.375,5.141,5.141,0,0,1,0-7,1.237,1.237,0,0,1,1.749,1.749A2.709,2.709,0,0,0,34,30.374a2.986,2.986,0,0,0,.625,1.749,1.208,1.208,0,0,1,0,1.749A1.134,1.134,0,0,1,33.749,34.248Z" transform="translate(-31.5 -15.753)"/>
    </g>
    <g id="Group_112" data-name="Group 112" transform="translate(9.747 5.124)">
      <path id="Path_87" data-name="Path 87" class="cls-1" d="M26.35,34.348a1.134,1.134,0,0,1-.875-.375,1.208,1.208,0,0,1,0-1.749,2.661,2.661,0,0,0,0-3.5,1.237,1.237,0,0,1,1.749-1.749,5.057,5.057,0,0,1,0,7A1.35,1.35,0,0,1,26.35,34.348Z" transform="translate(-24.069 -10.605)"/>
      <path id="Path_88" data-name="Path 88" class="cls-1" d="M26.556,30.173a1.134,1.134,0,0,1-.875-.375,5.214,5.214,0,0,1,0-7.123,1.237,1.237,0,0,1,1.749,1.749,2.83,2.83,0,0,0,0,3.624,1.208,1.208,0,0,1,0,1.749A1.35,1.35,0,0,1,26.556,30.173Z" transform="translate(-24.275 -11.678)"/>
      <path id="Path_89" data-name="Path 89" class="cls-1" d="M26.35,25.9a1.134,1.134,0,0,1-.875-.375,1.208,1.208,0,0,1,0-1.749,3,3,0,0,0,0-3.749,1.237,1.237,0,0,1,1.749-1.749,5.374,5.374,0,0,1,0,7.248A1.35,1.35,0,0,1,26.35,25.9Z" transform="translate(-24.069 -12.776)"/>
      <path id="Path_90" data-name="Path 90" class="cls-1" d="M26.556,21.423a1.134,1.134,0,0,1-.875-.375,4.9,4.9,0,0,1,0-6.873,1.237,1.237,0,1,1,1.749,1.749,2.5,2.5,0,0,0,0,3.374,1.208,1.208,0,0,1,0,1.749A1.35,1.35,0,0,1,26.556,21.423Z" transform="translate(-24.275 -13.8)"/>
      <path id="Path_91" data-name="Path 91" class="cls-1" d="M26.556,38.548a1.134,1.134,0,0,1-.875-.375,5.057,5.057,0,0,1,0-7,1.237,1.237,0,0,1,1.749,1.749,2.661,2.661,0,0,0,0,3.5,1.208,1.208,0,0,1,0,1.749A1.35,1.35,0,0,1,26.556,38.548Z" transform="translate(-24.275 -9.556)"/>
    </g>
    <g id="Group_113" data-name="Group 113">
      <path id="Path_92" data-name="Path 92" class="cls-1" d="M18.55,30.248a1.134,1.134,0,0,1-.875-.375,1.208,1.208,0,0,1,0-1.749,2.661,2.661,0,0,0,0-3.5,1.237,1.237,0,1,1,1.749-1.749,5.057,5.057,0,0,1,0,7A1.134,1.134,0,0,1,18.55,30.248Z" transform="translate(-16.269 -6.505)"/>
      <path id="Path_93" data-name="Path 93" class="cls-1" d="M18.756,26.073a1.134,1.134,0,0,1-.875-.375,5.214,5.214,0,0,1,0-7.123,1.237,1.237,0,1,1,1.749,1.749,2.83,2.83,0,0,0,0,3.624,1.208,1.208,0,0,1,0,1.749A1.134,1.134,0,0,1,18.756,26.073Z" transform="translate(-16.475 -7.578)"/>
      <path id="Path_94" data-name="Path 94" class="cls-1" d="M18.55,21.8a1.134,1.134,0,0,1-.875-.375,1.208,1.208,0,0,1,0-1.749A2.812,2.812,0,0,0,18.3,17.8a3.069,3.069,0,0,0-.625-1.874,1.237,1.237,0,0,1,1.749-1.749A5.214,5.214,0,0,1,20.8,17.8a5.214,5.214,0,0,1-1.375,3.624A1.134,1.134,0,0,1,18.55,21.8Z" transform="translate(-16.269 -8.676)"/>
      <path id="Path_95" data-name="Path 95" class="cls-1" d="M18.756,17.323a1.134,1.134,0,0,1-.875-.375,4.9,4.9,0,0,1,0-6.873,1.237,1.237,0,1,1,1.749,1.749,2.5,2.5,0,0,0,0,3.374,1.208,1.208,0,0,1,0,1.749C19.38,17.323,19.13,17.323,18.756,17.323Z" transform="translate(-16.475 -9.7)"/>
      <path id="Path_96" data-name="Path 96" class="cls-1" d="M18.749,34.3a1.134,1.134,0,0,1-.875-.375,4.828,4.828,0,0,1,0-6.748,1.237,1.237,0,0,1,1.749,1.749A2.069,2.069,0,0,0,19,30.549a2.376,2.376,0,0,0,.625,1.625,1.208,1.208,0,0,1,0,1.749A1.134,1.134,0,0,1,18.749,34.3Z" transform="translate(-16.469 -5.431)"/>
      <path id="Path_97" data-name="Path 97" class="cls-1" d="M18.55,38.3a1.134,1.134,0,0,1-.875-.375,1.208,1.208,0,0,1,0-1.749,2.339,2.339,0,0,0,0-3.249,1.237,1.237,0,0,1,1.749-1.749,4.9,4.9,0,0,1,0,6.873A1.806,1.806,0,0,1,18.55,38.3Z" transform="translate(-16.269 -4.433)"/>
      <path id="Path_98" data-name="Path 98" class="cls-1" d="M18.756,42.548a1.134,1.134,0,0,1-.875-.375,5.057,5.057,0,0,1,0-7,1.237,1.237,0,1,1,1.749,1.749,2.661,2.661,0,0,0,0,3.5,1.208,1.208,0,0,1,0,1.749A1.134,1.134,0,0,1,18.756,42.548Z" transform="translate(-16.475 -3.434)"/>
    </g>
  </g>
  <g id="Group_116" data-name="Group 116">
    <g id="Group_115" data-name="Group 115">
      <path id="Path_99" data-name="Path 99" class="cls-1" d="M58.162,26.742a1.181,1.181,0,0,1-1.25-1.25V12.621c0-10-6.123-10.122-6.373-10.122H16.55A1.181,1.181,0,0,1,15.3,1.25,1.181,1.181,0,0,1,16.55,0H50.665c.125,0,8.872.125,8.872,12.621V25.493A1.469,1.469,0,0,1,58.162,26.742Z" transform="translate(3.819)"/>
      <path id="Path_100" data-name="Path 100" class="cls-1" d="M46.87,56.017H31.75a1.25,1.25,0,0,1,0-2.5H46.87c.25,0,6.373-.25,6.373-10.122V30.65a1.25,1.25,0,0,1,2.5,0V43.521C55.618,55.892,46.87,56.017,46.87,56.017Z" transform="translate(7.614 7.339)"/>
      <path id="Path_101" data-name="Path 101" class="cls-1" d="M42.862,63.356H8.872C8.747,63.356,0,63.231,0,50.86V12.621C0,.125,8.747,0,8.872,0H23.993a1.181,1.181,0,0,1,1.25,1.25,1.181,1.181,0,0,1-1.25,1.25H8.872c-.25,0-6.373.25-6.373,10.122V50.86c0,9.872,6.123,10.122,6.373,10.122H42.987a1.181,1.181,0,0,1,1.25,1.25C44.237,62.982,43.612,63.356,42.862,63.356Z"/>
    </g>
    <circle id="Ellipse_31" data-name="Ellipse 31" class="cls-1" cx="1.25" cy="1.25" r="1.25" transform="translate(60.732 30.491)"/>
  </g>
</svg>
