<svg id="Group_110" data-name="Group 110" xmlns="http://www.w3.org/2000/svg" viewBox="0 0 64.154 63.901">
  <defs>
    <style>
      .cls-1 {
        fill: #48a2cd;
      }
    </style>
  </defs>
  <g id="Group_107" data-name="Group 107" transform="translate(17.965 15.028)">
    <path id="Path_78" data-name="Path 78" class="cls-1" d="M25.549,43.386c-.253,0-.379,0-.505-.126a1.115,1.115,0,0,1-.505-1.642l2.778-5.557H23.276a1.507,1.507,0,0,1-1.137-.631,1.147,1.147,0,0,1,0-1.263L25.8,26.842a1.215,1.215,0,1,1,2.147,1.137L25.3,33.535h3.915a1.507,1.507,0,0,1,1.137.631,1.147,1.147,0,0,1,0,1.263l-3.662,7.325A1.326,1.326,0,0,1,25.549,43.386Z" transform="translate(-12.195 -8.152)"/>
    <path id="Path_79" data-name="Path 79" class="cls-1" d="M18.756,24.988A1.8,1.8,0,0,1,18,24.736a1.358,1.358,0,0,1-.253-1.768c2.021-2.652,5.683-4.167,9.724-4.167a12.536,12.536,0,0,1,9.6,4.041,1.253,1.253,0,1,1-1.894,1.642A9.839,9.839,0,0,0,27.6,21.326c-3.157,0-6.188,1.263-7.7,3.157A2.269,2.269,0,0,1,18.756,24.988Z" transform="translate(-13.358 -10.086)"/>
    <path id="Path_80" data-name="Path 80" class="cls-1" d="M41.219,18.72a1.149,1.149,0,0,1-1.01-.505C38.314,15.941,33.515,14.3,28.337,14.3s-9.977,1.515-11.871,3.915A1.263,1.263,0,1,1,14.446,16.7c2.4-2.9,7.83-4.8,13.892-4.8s11.492,1.894,13.892,4.8a1.235,1.235,0,0,1-.253,1.768A1.8,1.8,0,0,1,41.219,18.72Z" transform="translate(-14.226 -11.9)"/>
  </g>
  <g id="Group_109" data-name="Group 109" transform="translate(0)">
    <g id="Group_108" data-name="Group 108">
      <path id="Path_81" data-name="Path 81" class="cls-1" d="M1.263,44.58A1.193,1.193,0,0,1,0,43.317V8.966C0,8.84.126,0,12.755,0H25.763a1.193,1.193,0,0,1,1.263,1.263,1.193,1.193,0,0,1-1.263,1.263H12.755c-9.977,0-10.229,6.188-10.229,6.441V43.443A1.166,1.166,0,0,1,1.263,44.58Z" transform="translate(0)"/>
      <path id="Path_82" data-name="Path 82" class="cls-1" d="M55.036,25.51a1.193,1.193,0,0,1-1.263-1.263V8.966c0-.253-.253-6.441-10.229-6.441H30.663A1.193,1.193,0,0,1,29.4,1.263,1.193,1.193,0,0,1,30.663,0H43.671C56.3,0,56.426,8.84,56.426,8.966V24.247A1.484,1.484,0,0,1,55.036,25.51Z" transform="translate(7.729)"/>
      <path id="Path_83" data-name="Path 83" class="cls-1" d="M51.4,59.88H12.755C.126,59.88,0,51.039,0,51.039V35.759A1.193,1.193,0,0,1,1.263,34.5a1.193,1.193,0,0,1,1.263,1.263V51.039c0,.253.253,6.314,10.229,6.314H51.4c9.977,0,10.229-6.188,10.229-6.441V16.563a1.263,1.263,0,1,1,2.526,0V51.039C64.028,51.166,63.9,59.88,51.4,59.88Z" transform="translate(0 4.022)"/>
    </g>
    <circle id="Ellipse_30" data-name="Ellipse 30" class="cls-1" cx="1.263" cy="1.263" r="1.263" transform="translate(30.814)"/>
  </g>
</svg>
